<svg xmlns="http://www.w3.org/2000/svg" width="16.933" height="19.362" viewBox="0 0 16.933 19.362"><defs><style>.a{fill:#6c63ff;}</style></defs><g transform="translate(-2.322 -1037.87)"><path class="a" d="M10.748,1.508l-.414.315C8.119,3.494,5.493,5.216,3.013,5.4l-.69.047v.693c0,4.317.2,7.219,1.375,9.489S7,19.348,10.471,20.751l.288.119.285-.125c3.362-1.448,5.5-2.69,6.731-4.9s1.48-5.161,1.48-9.984V5.221l-.632-.093c-2.8-.431-4.867-1.694-7.438-3.341Zm.058,1.785a20.4,20.4,0,0,0,6.932,3.1c-.027,4.37-.324,7.036-1.267,8.732a5.619,5.619,0,0,1-.341.527L6.368,5.888A21.055,21.055,0,0,0,10.806,3.293ZM4.818,6.447l10.3,10.3a17.384,17.384,0,0,1-4.372,2.479c-3.1-1.293-4.8-2.493-5.729-4.281C4.1,13.18,3.86,10.574,3.837,6.66,4.167,6.606,4.5,6.533,4.818,6.447Z" transform="translate(0 1036.362)"/></g></svg>